<?xml version="1.0" standalone="no"?>
<!-- Creator: fig2dev Version 3.2.6a -->
<!-- CreationDate: 2020-07-12 19:15:52 -->
<!-- Magnification: 1.05 -->
<svg	xmlns="http://www.w3.org/2000/svg"
	xmlns:xlink="http://www.w3.org/1999/xlink"
	width="231pt" height="164pt"
	viewBox="11193 8528 3665 2593">
<g fill="none">
<!-- Ellipse -->
<ellipse cx="14175" cy="10189" rx="675" ry="270"
	stroke="#b00000" stroke-width="8px"/>
<!-- Line -->
<defs>
<clipPath id="cp0">
	<path clip-rule="evenodd" d="M 11193,8528 H 14858 V 11121 H 11193 z
		M 14205,9764 14145,9764 14168,9907 14182,9907z"/>
</clipPath>
</defs>
<polyline points=" 13725,9000 14175,9000 14175,9900" clip-path="url(#cp0)"
	stroke="#b00000" stroke-width="8px"/>
<!-- Forward arrow to point 14175,9900 -->
<polygon points=" 14145,9764 14175,9884 14205,9764 14145,9764"
	stroke="#b00000" stroke-width="8px" stroke-miterlimit="8" fill="#b00000"/>
<!-- Line -->
<polyline points=" 11250,9000 12330,9000"
	stroke="#000000" stroke-width="8px"/>
<!-- Line -->
<defs>
<clipPath id="cp1">
	<path clip-rule="evenodd" d="M 11193,8528 H 14858 V 11121 H 11193 z
		M 11386,10830 11386,10770 11243,10793 11243,10807z"/>
</clipPath>
</defs>
<polyline points=" 14175,10485 14175,10800 11250,10800" clip-path="url(#cp1)"
	stroke="#b00000" stroke-width="8px"/>
<!-- Forward arrow to point 11250,10800 -->
<polygon points=" 11386,10770 11266,10800 11386,10830 11386,10770"
	stroke="#b00000" stroke-width="8px" stroke-miterlimit="8" fill="#b00000"/>
<!-- Line -->
<polygon points=" 12375,9000 13050,8550 13725,9000 13050,9450"
	stroke="#606c71" stroke-width="15px"/>
<!-- Line -->
<defs>
<clipPath id="cp2">
	<path clip-rule="evenodd" d="M 11193,8528 H 14858 V 11121 H 11193 z
		M 11341,9930 11341,9870 11198,9893 11198,9907z"/>
</clipPath>
</defs>
<polyline points=" 13050,9450 13050,9900 11205,9900" clip-path="url(#cp2)"
	stroke="#00b000" stroke-width="8px"/>
<!-- Forward arrow to point 11205,9900 -->
<polygon points=" 11341,9870 11221,9900 11341,9930 11341,9870"
	stroke="#00b000" stroke-width="8px" stroke-miterlimit="8" fill="#00b000"/>
<!-- Text -->
<text xml:space="preserve" x="13050" y="9315" fill="#606c71" font-family="AvantGarde" font-style="normal" font-weight="normal" font-size="216" text-anchor="middle">?</text>
<!-- Text -->
<text xml:space="preserve" x="13050" y="8910" fill="#606c71" font-family="AvantGarde" font-style="normal" font-weight="normal" font-size="216" text-anchor="middle">result</text>
<!-- Text -->
<text xml:space="preserve" x="13050" y="9090" fill="#606c71" font-family="AvantGarde" font-style="normal" font-weight="normal" font-size="216" text-anchor="middle">exists</text>
<!-- Text -->
<text xml:space="preserve" x="14130" y="9225" fill="#b00000" font-family="AvantGarde" font-style="normal" font-weight="normal" font-size="216" text-anchor="end">NO</text>
<!-- Text -->
<text xml:space="preserve" x="13005" y="9810" fill="#00b000" font-family="AvantGarde" font-style="normal" font-weight="normal" font-size="216" text-anchor="end">YES</text>
<!-- Text -->
<text xml:space="preserve" x="14175" y="10260" fill="#606c71" font-family="AvantGarde" font-style="normal" font-weight="normal" font-size="216" text-anchor="middle">build job!</text>
<!-- Text -->
<text xml:space="preserve" x="11250" y="8955" fill="#606c71" font-family="AvantGarde" font-style="normal" font-weight="normal" font-size="216" text-anchor="start">build()</text>
<!-- Text -->
<text xml:space="preserve" x="11250" y="10125" fill="#606c71" font-family="AvantGarde" font-style="normal" font-weight="normal" font-size="216" text-anchor="start">job instance</text>
<!-- Text -->
<text xml:space="preserve" x="11250" y="11025" fill="#606c71" font-family="AvantGarde" font-style="normal" font-weight="normal" font-size="216" text-anchor="start">job instance</text>
</g>
</svg>
