<?xml version="1.0" standalone="no"?>
<!DOCTYPE svg PUBLIC "-//W3C//DTD SVG 1.1//EN"
"http://www.w3.org/Graphics/SVG/1.1/DTD/svg11.dtd">
<!-- Creator: fig2dev Version 3.2 Patchlevel 5e -->
<!-- CreationDate: Mon Oct  5 13:56:59 2020 -->
<!-- Magnification: 1.050 -->
<svg	xmlns="http://www.w3.org/2000/svg"
	xmlns:xlink="http://www.w3.org/1999/xlink"
	width="6.3in" height="4.7in"
	viewBox="960 1622 7603 5656">
<g style="stroke-width:.025in; fill:none">
<!-- Line -->
<polyline points="5149,2078
5152,2078
5159,2078
5171,2078
5190,2077
5215,2077
5246,2076
5281,2075
5321,2074
5362,2073
5405,2072
5447,2070
5488,2068
5526,2067
5563,2064
5596,2061
5628,2059
5656,2056
5683,2053
5709,2049
5732,2046
5754,2040
5775,2036
5795,2031
5818,2025
5841,2016
5863,2009
5886,2000
5907,1990
5929,1981
5950,1970
5971,1959
5992,1948
6012,1937
6032,1925
6050,1914
6069,1903
6086,1892
6101,1883
6117,1874
6132,1864
6146,1857
6159,1848
6173,1842
6192,1834
6209,1826
6228,1820
6248,1815
6270,1811
6293,1806
6319,1803
6345,1800
6370,1798
6393,1797
6299,1802
" style="stroke:#008f8f;stroke-width:8;
stroke-linejoin:bevel; stroke-linecap:butt;
"/>
<!-- Arrowhead on XXXpoint 6393 1797 - 6439 1794-->
<polygon points="6299 1835
6423 1795
6295 1772
6299 1835

" style="stroke:#008f8f;stroke-width:8;stroke-miterlimit:8;
fill:#008f8f;"/>
<!-- Line -->
<polyline points="6661,2267
6659,2267
6654,2268
6643,2269
6628,2271
6608,2274
6582,2277
6553,2281
6520,2285
6485,2290
6448,2296
6410,2302
6373,2307
6337,2313
6301,2320
6266,2326
6233,2333
6200,2340
6167,2348
6135,2355
6102,2364
6069,2373
6035,2383
6000,2393
5973,2401
5947,2409
5920,2418
5891,2427
5863,2437
5833,2447
5802,2458
5770,2470
5737,2481
5703,2494
5670,2508
5634,2521
5598,2536
5563,2552
5526,2567
5489,2583
5451,2600
5415,2618
5377,2636
5340,2655
5303,2674
5267,2692
5231,2711
5196,2731
5161,2752
5127,2772
5093,2793
5061,2813
5029,2834
4998,2856
4969,2877
4938,2899
4910,2921
4881,2944
4854,2967
4827,2992
4800,3016
4772,3041
4746,3068
4720,3096
4692,3125
4665,3155
4638,3188
4609,3223
4581,3259
4551,3297
4520,3338
4489,3380
4457,3425
4424,3471
4390,3520
4356,3569
4323,3618
4289,3668
4257,3717
4225,3764
4196,3809
4169,3851
4143,3888
4122,3922
4104,3949
4090,3972
4079,3989
4130,3909
" style="stroke:#159957;stroke-width:8;
stroke-linejoin:bevel; stroke-linecap:butt;
"/>
<!-- Arrowhead on XXXpoint 4079 3989 - 4053 4028-->
<polygon points="4107 3891
4062 4014
4159 3927
4107 3891

" style="stroke:#159957;stroke-width:8;stroke-miterlimit:8;
fill:#159957;"/>
<!-- Line -->
<polyline points="2362,2267
2365,2267
2373,2267
2387,2268
2407,2269
2433,2271
2465,2274
2498,2277
2534,2280
2571,2284
2605,2288
2639,2293
2670,2299
2700,2305
2727,2311
2753,2320
2779,2328
2803,2339
2826,2349
2850,2362
2869,2372
2887,2384
2906,2395
2925,2409
2945,2423
2965,2438
2986,2455
3007,2472
3028,2491
3050,2512
3072,2533
3095,2555
3117,2578
3139,2602
3161,2627
3183,2653
3204,2679
3225,2706
3246,2733
3266,2762
3286,2789
3304,2818
3323,2847
3342,2876
3360,2907
3378,2937
3392,2962
3405,2987
3420,3015
3434,3042
3448,3071
3463,3102
3478,3134
3492,3168
3508,3204
3525,3243
3542,3282
3560,3325
3579,3371
3597,3418
3616,3467
3637,3519
3657,3570
3678,3624
3698,3676
3718,3729
3737,3778
3755,3825
3771,3867
3785,3905
3797,3938
3807,3964
3815,3984
3783,3897
" style="stroke:#159957;stroke-width:8;
stroke-linejoin:bevel; stroke-linecap:butt;
"/>
<!-- Arrowhead on XXXpoint 3815 3984 - 3832 4030-->
<polygon points="3752 3906
3825 4014
3812 3884
3752 3906

" style="stroke:#159957;stroke-width:8;stroke-miterlimit:8;
fill:#159957;"/>
<!-- Line -->
<polyline points="2456,2031
2459,2031
2467,2031
2479,2030
2498,2030
2520,2029
2546,2028
2575,2026
2603,2025
2630,2023
2657,2019
2681,2017
2704,2014
2725,2011
2745,2007
2765,2003
2784,1997
2803,1992
2820,1986
2838,1980
2856,1973
2875,1966
2895,1958
2915,1949
2936,1941
2958,1931
2979,1922
3002,1912
3024,1904
3046,1895
3068,1885
3090,1877
3111,1868
3132,1860
3153,1853
3173,1846
3192,1840
3212,1835
3232,1829
3251,1824
3272,1820
3293,1817
3315,1814
3339,1811
3364,1807
3392,1805
3421,1803
3451,1801
3484,1800
3516,1799
3546,1797
3573,1797
3597,1796
3511,1797
" style="stroke:#159957;stroke-width:8;
stroke-linejoin:bevel; stroke-linecap:butt;
"/>
<!-- Arrowhead on XXXpoint 3597 1796 - 3652 1794-->
<polygon points="3510 1830
3635 1795
3507 1767
3510 1830

" style="stroke:#159957;stroke-width:8;stroke-miterlimit:8;
fill:#159957;"/>
<!-- Line -->
<polyline points="2503,7133
2506,7133
2510,7133
2518,7133
2532,7133
2551,7133
2576,7133
2606,7133
2644,7132
2688,7132
2738,7132
2791,7132
2850,7131
2911,7131
2975,7130
3040,7130
3106,7129
3172,7129
3236,7128
3300,7127
3362,7126
3422,7126
3479,7125
3534,7124
3586,7123
3636,7122
3683,7121
3729,7119
3772,7118
3813,7117
3851,7116
3889,7113
3925,7111
3959,7110
3992,7108
4025,7106
4055,7104
4087,7102
4127,7099
4166,7096
4205,7091
4243,7087
4281,7083
4319,7079
4355,7074
4392,7067
4428,7062
4465,7056
4499,7048
4534,7041
4567,7034
4601,7026
4634,7018
4665,7008
4696,7000
4725,6991
4753,6980
4781,6971
4807,6960
4833,6950
4857,6939
4880,6928
4903,6917
4925,6906
4946,6894
4969,6881
4991,6868
5013,6854
5035,6839
5057,6824
5080,6808
5103,6791
5125,6774
5149,6756
5172,6739
5196,6721
5220,6702
5245,6684
5270,6665
5294,6647
5318,6628
5343,6612
5367,6594
5392,6577
5416,6561
5440,6546
5464,6532
5487,6518
5511,6506
5534,6494
5559,6482
5583,6472
5607,6462
5632,6453
5657,6446
5685,6438
5713,6431
5743,6425
5775,6419
5809,6414
5846,6409
5885,6405
5927,6401
5970,6397
6016,6394
6064,6391
6111,6388
6158,6386
6203,6384
6244,6382
6282,6381
6312,6380
6338,6379
6251,6380
" style="stroke:#159957;stroke-width:8;
stroke-linejoin:bevel; stroke-linecap:butt;
"/>
<!-- Arrowhead on XXXpoint 6338 6379 - 6392 6376-->
<polygon points="6250 6413
6375 6377
6247 6350
6250 6413

" style="stroke:#159957;stroke-width:8;stroke-miterlimit:8;
fill:#159957;"/>
<!-- Line -->
<polyline points="3826,4724
3824,4724
3818,4724
3807,4725
3792,4726
3770,4727
3743,4728
3712,4730
3676,4732
3639,4735
3601,4739
3562,4743
3523,4747
3486,4752
3449,4758
3415,4763
3381,4769
3349,4776
3316,4784
3285,4792
3254,4801
3222,4811
3190,4822
3158,4834
3130,4845
3102,4856
3074,4868
3044,4880
3015,4894
2983,4908
2952,4923
2919,4939
2886,4956
2852,4974
2817,4992
2783,5012
2748,5030
2713,5051
2679,5072
2644,5093
2609,5116
2576,5137
2543,5160
2511,5182
2480,5204
2450,5226
2422,5249
2393,5271
2367,5293
2341,5314
2317,5336
2295,5358
2272,5379
2251,5401
2228,5426
2207,5451
2187,5478
2169,5504
2151,5531
2134,5561
2117,5591
2101,5624
2087,5657
2072,5694
2057,5733
2043,5773
2028,5815
2014,5858
2002,5901
1989,5943
1977,5984
1967,6022
1959,6055
1951,6083
1945,6106
1964,6018
" style="stroke:#606c71;stroke-width:8;
stroke-linejoin:bevel; stroke-linecap:butt;
"/>
<!-- Arrowhead on XXXpoint 1945 6106 - 1932 6156-->
<polygon points="1937 6009
1937 6139
1997 6024
1937 6009

" style="stroke:#606c71;stroke-width:8;stroke-miterlimit:8;
fill:#606c71;"/>
<!-- Line -->
<polyline points="5385,4488
5388,4488
5395,4488
5405,4488
5423,4489
5447,4489
5478,4489
5514,4490
5556,4491
5604,4492
5652,4493
5703,4495
5755,4497
5805,4498
5855,4500
5903,4502
5948,4506
5990,4508
6031,4511
6069,4514
6104,4517
6137,4521
6169,4525
6199,4530
6227,4534
6255,4539
6281,4544
6307,4551
6337,4558
6365,4566
6394,4575
6423,4585
6451,4596
6479,4606
6507,4619
6535,4632
6562,4646
6590,4661
6616,4676
6641,4692
6666,4708
6690,4726
6713,4744
6735,4762
6756,4780
6776,4798
6795,4817
6813,4836
6829,4855
6845,4874
6859,4893
6874,4913
6887,4933
6899,4954
6912,4975
6923,4997
6935,5020
6945,5044
6956,5068
6966,5095
6976,5120
6985,5147
6995,5174
7003,5202
7012,5230
7019,5257
7026,5286
7033,5313
7039,5340
7044,5367
7049,5394
7055,5420
7059,5445
7063,5470
7066,5495
7070,5520
7074,5544
7078,5568
7081,5593
7084,5618
7087,5645
7090,5672
7093,5701
7097,5732
7100,5764
7103,5798
7106,5835
7110,5872
7113,5910
7117,5949
7121,5987
7123,6023
7126,6055
7128,6082
7130,6104
7123,6015
" style="stroke:#606c71;stroke-width:8;
stroke-linejoin:bevel; stroke-linecap:butt;
"/>
<!-- Arrowhead on XXXpoint 7130 6104 - 7134 6156-->
<polygon points="7091 6015
7133 6139
7154 6010
7091 6015

" style="stroke:#606c71;stroke-width:8;stroke-miterlimit:8;
fill:#606c71;"/>
<!-- Text -->
<text xml:space="preserve" x="992" y="1858" fill="#159957"  font-family="Courier" font-style="normal" font-weight="bold" font-size="252" text-anchor="start">Urd</text>
<!-- Text -->
<text xml:space="preserve" x="1228" y="2330" fill="#159957"  font-family="Courier" font-style="normal" font-weight="normal" font-size="202" text-anchor="start">.build()</text>
<!-- Text -->
<text xml:space="preserve" x="1228" y="2094" fill="#159957"  font-family="Courier" font-style="normal" font-weight="normal" font-size="202" text-anchor="start">.latest()</text>
<!-- Text -->
<text xml:space="preserve" x="3748" y="1874" fill="#159957"  font-family="Courier" font-style="normal" font-weight="bold" font-size="252" text-anchor="start">UrdResponse</text>
<!-- Text -->
<text xml:space="preserve" x="3984" y="2110" fill="#159957"  font-family="Courier" font-style="normal" font-weight="normal" font-size="202" text-anchor="start">.joblist</text>
<!-- Text -->
<text xml:space="preserve" x="3984" y="2346" fill="#159957"  font-family="Courier" font-style="normal" font-weight="normal" font-size="202" text-anchor="start">.timestamp</text>
<!-- Text -->
<text xml:space="preserve" x="6535" y="1874" fill="#159957"  font-family="Courier" font-style="normal" font-weight="bold" font-size="252" text-anchor="start">JobList</text>
<!-- Text -->
<text xml:space="preserve" x="6771" y="2110" fill="#159957"  font-family="Courier" font-style="normal" font-weight="normal" font-size="202" text-anchor="start">.find()</text>
<!-- Text -->
<text xml:space="preserve" x="6771" y="2346" fill="#159957"  font-family="Courier" font-style="normal" font-weight="normal" font-size="202" text-anchor="start">.get()</text>
<!-- Text -->
<text xml:space="preserve" x="976" y="6488" fill="#159957"  font-family="Courier" font-style="normal" font-weight="bold" font-size="252" text-anchor="start">DatasetWriter</text>
<!-- Text -->
<text xml:space="preserve" x="1212" y="6724" fill="#159957"  font-family="Courier" font-style="normal" font-weight="normal" font-size="202" text-anchor="start">.add()</text>
<!-- Text -->
<text xml:space="preserve" x="1212" y="6960" fill="#159957"  font-family="Courier" font-style="normal" font-weight="normal" font-size="202" text-anchor="start">.write()</text>
<!-- Text -->
<text xml:space="preserve" x="1212" y="7196" fill="#159957"  font-family="Courier" font-style="normal" font-weight="normal" font-size="202" text-anchor="start">.finish()</text>
<!-- Text -->
<text xml:space="preserve" x="3732" y="4299" fill="#000000"  font-family="Courier" font-style="normal" font-weight="bold" font-size="252" text-anchor="start">Job</text>
<!-- Text -->
<text xml:space="preserve" x="3968" y="4535" fill="#000000"  font-family="Courier" font-style="normal" font-weight="normal" font-size="202" text-anchor="start">.dataset()</text>
<!-- Text -->
<text xml:space="preserve" x="3968" y="4771" fill="#000000"  font-family="Courier" font-style="normal" font-weight="normal" font-size="202" text-anchor="start">.datasetwriter()</text>
<!-- Text -->
<text xml:space="preserve" x="6535" y="6472" fill="#159957"  font-family="Courier" font-style="normal" font-weight="bold" font-size="252" text-anchor="start">Dataset</text>
<!-- Text -->
<text xml:space="preserve" x="6771" y="6708" fill="#159957"  font-family="Courier" font-style="normal" font-weight="normal" font-size="202" text-anchor="start">.iterate()</text>
<!-- Text -->
<text xml:space="preserve" x="6771" y="6944" fill="#159957"  font-family="Courier" font-style="normal" font-weight="normal" font-size="202" text-anchor="start">.merge()</text>
<!-- Text -->
<text xml:space="preserve" x="6771" y="7181" fill="#159957"  font-family="Courier" font-style="normal" font-weight="normal" font-size="202" text-anchor="start">.chain()</text>
</g>
</svg>
