<?xml version="1.0" standalone="no"?>
<!-- Creator: fig2dev Version 3.2.6a -->
<!-- CreationDate: 2020-07-12 19:15:52 -->
<!-- Magnification: 1.05 -->
<svg	xmlns="http://www.w3.org/2000/svg"
	xmlns:xlink="http://www.w3.org/1999/xlink"
	width="479pt" height="128pt"
	viewBox="568 8438 7599 2024">
<g fill="none">
<!-- Circle -->
<circle cx="1080" cy="9450" r="387"
	stroke="#606c71" stroke-width="15px"/>
<!-- Circle -->
<circle cx="1080" cy="9450" r="127"
	stroke="#606c71" stroke-width="15px"/>
<!-- Line -->
<defs>
<clipPath id="cp0">
	<path clip-rule="evenodd" d="M 568,8438 H 8167 V 10462 H 568 z
		M 3314,9405 3314,9495 3521,9461 3521,9440z"/>
</clipPath>
</defs>
<polyline points=" 1980,9450 3510,9450" clip-path="url(#cp0)"
	stroke="#606c71" stroke-width="15px"/>
<!-- Forward arrow to point 3510,9450 -->
<polygon points=" 3314,9495 3494,9450 3314,9405 3314,9495"
	stroke="#606c71" stroke-width="8px" stroke-miterlimit="8" fill="#606c71"/>
<!-- Line -->
<defs>
<clipPath id="cp1">
	<path clip-rule="evenodd" d="M 568,8438 H 8167 V 10462 H 568 z
		M 6914,9405 6914,9495 7121,9461 7121,9440z"/>
</clipPath>
</defs>
<polyline points=" 5580,9450 7110,9450" clip-path="url(#cp1)"
	stroke="#606c71" stroke-width="15px"/>
<!-- Forward arrow to point 7110,9450 -->
<polygon points=" 6914,9495 7094,9450 6914,9405 6914,9495"
	stroke="#606c71" stroke-width="8px" stroke-miterlimit="8" fill="#606c71"/>
<!-- Line -->
<rect x="7245" y="9000" width="900" height="900" rx="60"
	stroke="#606c71" stroke-width="15px"/>
<!-- Line -->
<rect x="3645" y="8460" width="1800" height="1980" rx="60"
	stroke="#606c71" stroke-width="15px"/>
<!-- Line -->
<polygon points=" 1530,9765 1305,9405 1620,9675 1620,9765" fill="#ffffff"
	stroke="#606c71" stroke-width="15px"/>
<!-- Line -->
<rect x="630" y="9000" width="1215" height="900" rx="60"
	stroke="#606c71" stroke-width="15px"/>
<!-- Text -->
<text xml:space="preserve" x="2700" y="9360" fill="#606c71" font-family="Helvetica" font-style="normal" font-weight="normal" font-size="216" text-anchor="middle">100+ MB/s</text>
<!-- Text -->
<text xml:space="preserve" x="6345" y="9360" fill="#606c71" font-family="Helvetica" font-style="normal" font-weight="normal" font-size="216" text-anchor="middle">1000+ MB/s</text>
<!-- Text -->
<text xml:space="preserve" x="7695" y="9540" fill="#606c71" font-family="Helvetica" font-style="normal" font-weight="normal" font-size="216" text-anchor="middle">CPU</text>
<!-- Text -->
<text xml:space="preserve" x="4545" y="9540" fill="#606c71" font-family="Helvetica" font-style="normal" font-weight="normal" font-size="216" text-anchor="middle">Memory</text>
<!-- Text -->
<text xml:space="preserve" x="1260" y="8910" fill="#606c71" font-family="Helvetica" font-style="normal" font-weight="normal" font-size="216" text-anchor="middle">Hard drive</text>
</g>
</svg>
