<?xml version="1.0" standalone="no"?>
<!-- Creator: fig2dev Version 3.2.6a -->
<!-- CreationDate: 2020-07-12 19:15:52 -->
<!-- Magnification: 1.05 -->
<svg	xmlns="http://www.w3.org/2000/svg"
	xmlns:xlink="http://www.w3.org/1999/xlink"
	width="413pt" height="223pt"
	viewBox="1094 12263 6545 3538">
<g fill="none">
<!-- Line -->
<rect x="2025" y="12600" width="225" height="2340" fill="#d7dadb"/>
<!-- Line -->
<rect x="4050" y="12285" width="225" height="585"
	stroke="#606c71" stroke-width="15px"/>
<!-- Line -->
<rect x="4365" y="12285" width="225" height="585"
	stroke="#606c71" stroke-width="15px"/>
<!-- Line -->
<rect x="4680" y="12285" width="225" height="585"
	stroke="#606c71" stroke-width="15px"/>
<!-- Line -->
<rect x="4995" y="12285" width="225" height="585"
	stroke="#606c71" stroke-width="15px"/>
<!-- Line -->
<rect x="5310" y="12285" width="225" height="585"
	stroke="#606c71" stroke-width="15px"/>
<!-- Line -->
<rect x="4050" y="13050" width="225" height="585"
	stroke="#606c71" stroke-width="15px"/>
<!-- Line -->
<rect x="4365" y="13050" width="225" height="585"
	stroke="#606c71" stroke-width="15px"/>
<!-- Line -->
<rect x="4680" y="13050" width="225" height="585"
	stroke="#606c71" stroke-width="15px"/>
<!-- Line -->
<rect x="4995" y="13050" width="225" height="585"
	stroke="#606c71" stroke-width="15px"/>
<!-- Line -->
<rect x="5310" y="13050" width="225" height="585"
	stroke="#606c71" stroke-width="15px"/>
<!-- Line -->
<rect x="4050" y="13815" width="225" height="585"
	stroke="#606c71" stroke-width="15px"/>
<!-- Line -->
<rect x="4365" y="13815" width="225" height="585"
	stroke="#606c71" stroke-width="15px"/>
<!-- Line -->
<rect x="4680" y="13815" width="225" height="585"
	stroke="#606c71" stroke-width="15px"/>
<!-- Line -->
<rect x="4995" y="13815" width="225" height="585"
	stroke="#606c71" stroke-width="15px"/>
<!-- Line -->
<rect x="5310" y="13815" width="225" height="585"
	stroke="#606c71" stroke-width="15px"/>
<!-- Line -->
<rect x="4050" y="14580" width="225" height="585"
	stroke="#606c71" stroke-width="15px"/>
<!-- Line -->
<rect x="4365" y="14580" width="225" height="585"
	stroke="#606c71" stroke-width="15px"/>
<!-- Line -->
<rect x="4680" y="14580" width="225" height="585"
	stroke="#606c71" stroke-width="15px"/>
<!-- Line -->
<rect x="4995" y="14580" width="225" height="585"
	stroke="#606c71" stroke-width="15px"/>
<!-- Line -->
<rect x="5310" y="14580" width="225" height="585"
	stroke="#606c71" stroke-width="15px"/>
<!-- Line -->
<polyline points=" 1575,12600 1575,14940"
	stroke="#606c71" stroke-width="8px" stroke-dasharray="10 30"/>
<!-- Line -->
<polyline points=" 1800,12600 1800,14940"
	stroke="#606c71" stroke-width="8px" stroke-dasharray="10 30"/>
<!-- Line -->
<polyline points=" 2025,12600 2025,14940"
	stroke="#606c71" stroke-width="8px" stroke-dasharray="10 30"/>
<!-- Line -->
<rect x="1350" y="12600" width="1125" height="2340"
	stroke="#606c71" stroke-width="15px"/>
<!-- Line -->
<defs>
<clipPath id="cp0">
	<path clip-rule="evenodd" d="M 1094,12263 H 7639 V 15801 H 1094 z
		M 3479,13665 3479,13785 3753,13743 3753,13707z"/>
</clipPath>
</defs>
<polyline points=" 2790,13725 3735,13725" clip-path="url(#cp0)"
	stroke="#606c71" stroke-width="30px"/>
<!-- Forward arrow to point 3735,13725 -->
<polygon points=" 3479,13785 3719,13725 3479,13665 3479,13785"
	stroke="#606c71" stroke-width="8px" stroke-miterlimit="8" fill="#606c71"/>
<!-- Line -->
<defs>
<clipPath id="cp1">
	<path clip-rule="evenodd" d="M 1094,12263 H 7639 V 15801 H 1094 z
		M 6464,12555 6464,12645 6671,12611 6671,12590z"/>
</clipPath>
</defs>
<polyline points=" 5850,12600 6660,12600" clip-path="url(#cp1)"
	stroke="#606c71" stroke-width="15px"/>
<!-- Forward arrow to point 6660,12600 -->
<polygon points=" 6464,12645 6644,12600 6464,12555 6464,12645"
	stroke="#606c71" stroke-width="8px" stroke-miterlimit="8" fill="#606c71"/>
<!-- Line -->
<defs>
<clipPath id="cp2">
	<path clip-rule="evenodd" d="M 1094,12263 H 7639 V 15801 H 1094 z
		M 6464,12555 6464,12645 6671,12611 6671,12590z"/>
</clipPath>
</defs>
<polyline points=" 5850,12600 6660,12600" clip-path="url(#cp2)"
	stroke="#606c71" stroke-width="15px"/>
<!-- Forward arrow to point 6660,12600 -->
<polygon points=" 6464,12645 6644,12600 6464,12555 6464,12645"
	stroke="#606c71" stroke-width="8px" stroke-miterlimit="8" fill="#606c71"/>
<!-- Line -->
<defs>
<clipPath id="cp3">
	<path clip-rule="evenodd" d="M 1094,12263 H 7639 V 15801 H 1094 z
		M 6464,12555 6464,12645 6671,12611 6671,12590z"/>
</clipPath>
</defs>
<polyline points=" 5850,12600 6660,12600" clip-path="url(#cp3)"
	stroke="#606c71" stroke-width="15px"/>
<!-- Forward arrow to point 6660,12600 -->
<polygon points=" 6464,12645 6644,12600 6464,12555 6464,12645"
	stroke="#606c71" stroke-width="8px" stroke-miterlimit="8" fill="#606c71"/>
<!-- Line -->
<defs>
<clipPath id="cp4">
	<path clip-rule="evenodd" d="M 1094,12263 H 7639 V 15801 H 1094 z
		M 6464,12555 6464,12645 6671,12611 6671,12590z"/>
</clipPath>
</defs>
<polyline points=" 5850,12600 6660,12600" clip-path="url(#cp4)"
	stroke="#606c71" stroke-width="15px"/>
<!-- Forward arrow to point 6660,12600 -->
<polygon points=" 6464,12645 6644,12600 6464,12555 6464,12645"
	stroke="#606c71" stroke-width="8px" stroke-miterlimit="8" fill="#606c71"/>
<!-- Line -->
<defs>
<clipPath id="cp5">
	<path clip-rule="evenodd" d="M 1094,12263 H 7639 V 15801 H 1094 z
		M 6464,12555 6464,12645 6671,12611 6671,12590z"/>
</clipPath>
</defs>
<polyline points=" 5850,12600 6660,12600" clip-path="url(#cp5)"
	stroke="#606c71" stroke-width="15px"/>
<!-- Forward arrow to point 6660,12600 -->
<polygon points=" 6464,12645 6644,12600 6464,12555 6464,12645"
	stroke="#606c71" stroke-width="8px" stroke-miterlimit="8" fill="#606c71"/>
<!-- Line -->
<defs>
<clipPath id="cp6">
	<path clip-rule="evenodd" d="M 1094,12263 H 7639 V 15801 H 1094 z
		M 6464,12555 6464,12645 6671,12611 6671,12590z"/>
</clipPath>
</defs>
<polyline points=" 5850,12600 6660,12600" clip-path="url(#cp6)"
	stroke="#606c71" stroke-width="15px"/>
<!-- Forward arrow to point 6660,12600 -->
<polygon points=" 6464,12645 6644,12600 6464,12555 6464,12645"
	stroke="#606c71" stroke-width="8px" stroke-miterlimit="8" fill="#606c71"/>
<!-- Line -->
<defs>
<clipPath id="cp7">
	<path clip-rule="evenodd" d="M 1094,12263 H 7639 V 15801 H 1094 z
		M 6464,13320 6464,13410 6671,13376 6671,13355z"/>
</clipPath>
</defs>
<polyline points=" 5850,13365 6660,13365" clip-path="url(#cp7)"
	stroke="#606c71" stroke-width="15px"/>
<!-- Forward arrow to point 6660,13365 -->
<polygon points=" 6464,13410 6644,13365 6464,13320 6464,13410"
	stroke="#606c71" stroke-width="8px" stroke-miterlimit="8" fill="#606c71"/>
<!-- Line -->
<defs>
<clipPath id="cp8">
	<path clip-rule="evenodd" d="M 1094,12263 H 7639 V 15801 H 1094 z
		M 6464,14040 6464,14130 6671,14096 6671,14075z"/>
</clipPath>
</defs>
<polyline points=" 5850,14085 6660,14085" clip-path="url(#cp8)"
	stroke="#606c71" stroke-width="15px"/>
<!-- Forward arrow to point 6660,14085 -->
<polygon points=" 6464,14130 6644,14085 6464,14040 6464,14130"
	stroke="#606c71" stroke-width="8px" stroke-miterlimit="8" fill="#606c71"/>
<!-- Line -->
<defs>
<clipPath id="cp9">
	<path clip-rule="evenodd" d="M 1094,12263 H 7639 V 15801 H 1094 z
		M 6464,14805 6464,14895 6671,14861 6671,14840z"/>
</clipPath>
</defs>
<polyline points=" 5850,14850 6660,14850" clip-path="url(#cp9)"
	stroke="#606c71" stroke-width="15px"/>
<!-- Forward arrow to point 6660,14850 -->
<polygon points=" 6464,14895 6644,14850 6464,14805 6464,14895"
	stroke="#606c71" stroke-width="8px" stroke-miterlimit="8" fill="#606c71"/>
<!-- Line -->
<polyline points=" 2250,12600 2250,14940"
	stroke="#606c71" stroke-width="8px" stroke-dasharray="10 30"/>
<!-- Line -->
<rect x="4995" y="12285" width="225" height="585" fill="#d7dadb"
	stroke="#606c71" stroke-width="15px"/>
<!-- Line -->
<rect x="4995" y="13050" width="225" height="585" fill="#d7dadb"
	stroke="#606c71" stroke-width="15px"/>
<!-- Line -->
<rect x="4995" y="13815" width="225" height="585" fill="#d7dadb"
	stroke="#606c71" stroke-width="15px"/>
<!-- Line -->
<rect x="4995" y="14580" width="225" height="585" fill="#d7dadb"
	stroke="#606c71" stroke-width="15px"/>
<!-- Text -->
<g transform="translate(1260,13725) rotate(-90)" >
<text xml:space="preserve" x="0" y="0" fill="#606c71" font-family="Helvetica" font-style="normal" font-weight="normal" font-size="216" text-anchor="middle">rows</text>
</g><!-- Text -->
<text xml:space="preserve" x="1890" y="12510" fill="#606c71" font-family="Helvetica" font-style="normal" font-weight="normal" font-size="216" text-anchor="middle">columns</text>
<!-- Text -->
<text xml:space="preserve" x="1890" y="15705" fill="#606c71" font-family="Helvetica" font-style="normal" font-weight="normal" font-size="216" text-anchor="middle">single file</text>
<!-- Text -->
<text xml:space="preserve" x="4815" y="15705" fill="#606c71" font-family="Helvetica" font-style="normal" font-weight="normal" font-size="216" text-anchor="middle">one file per column and slice</text>
<!-- Text -->
<text xml:space="preserve" x="6840" y="13455" fill="#606c71" font-family="Helvetica" font-style="normal" font-weight="normal" font-size="216" text-anchor="start">CPU1</text>
<!-- Text -->
<text xml:space="preserve" x="6840" y="14175" fill="#606c71" font-family="Helvetica" font-style="normal" font-weight="normal" font-size="216" text-anchor="start">CPU2</text>
<!-- Text -->
<text xml:space="preserve" x="6840" y="14940" fill="#606c71" font-family="Helvetica" font-style="normal" font-weight="normal" font-size="216" text-anchor="start">CPU3</text>
<!-- Text -->
<text xml:space="preserve" x="6840" y="12690" fill="#606c71" font-family="Helvetica" font-style="normal" font-weight="normal" font-size="216" text-anchor="start">CPU0</text>
</g>
</svg>
